<?xml version="1.0" standalone="no"?>
<!DOCTYPE svg PUBLIC "-//W3C//DTD SVG 20010904//EN"
 "http://www.w3.org/TR/2001/REC-SVG-20010904/DTD/svg10.dtd">
<svg version="1.0" xmlns="http://www.w3.org/2000/svg"
 width="500.000000pt" height="500.000000pt" viewBox="0 0 500.000000 500.000000"
 preserveAspectRatio="xMidYMid meet">

<g transform="translate(0.000000,500.000000) scale(0.100000,-0.100000)"
fill="#000000" stroke="none">
<path d="M0 2500 l0 -2500 2500 0 2500 0 0 2500 0 2500 -2500 0 -2500 0 0
-2500z m1978 795 c60 -14 156 -57 197 -89 19 -14 23 -11 77 41 87 86 88 84 88
-166 0 -218 -7 -255 -36 -184 -63 157 -150 266 -259 321 -171 86 -382 60 -490
-59 -73 -81 -124 -223 -141 -392 l-7 -67 774 2 773 3 98 303 c81 247 102 303
116 300 12 -2 43 -83 116 -306 l99 -302 419 0 418 0 -2 -197 -3 -198 -347 -3
c-192 -1 -348 -6 -348 -10 0 -4 36 -115 78 -247 l78 -240 102 -3 c94 -2 102
-4 102 -22 0 -19 -9 -20 -335 -20 -328 0 -335 0 -335 20 0 19 7 20 115 20 63
0 115 3 114 8 0 4 -32 102 -72 217 l-72 210 -227 3 -226 2 -71 -212 c-39 -117
-71 -216 -71 -221 0 -4 59 -7 130 -7 123 0 130 -1 130 -20 0 -19 -7 -20 -250
-20 -243 0 -250 1 -250 20 0 19 7 20 98 20 l98 0 81 250 81 250 -705 0 -705 0
7 -77 c15 -167 72 -320 145 -393 23 -23 67 -54 99 -69 50 -23 68 -26 161 -26
85 1 116 5 160 23 123 49 217 150 308 329 31 62 62 111 67 110 14 -5 19 -467
6 -480 -7 -7 -34 15 -79 63 l-68 72 -69 -52 c-109 -83 -189 -110 -326 -110
-139 0 -263 49 -391 155 -113 94 -235 279 -270 409 l-12 46 -188 0 -188 0 0
200 0 200 186 2 186 3 18 55 c86 268 292 476 530 535 74 18 211 18 288 0z
m-870 -1762 c-34 -5 -38 -32 -5 -34 l22 -2 -22 -4 c-12 -2 -24 -12 -26 -21 -3
-9 -5 -1 -6 19 -1 43 4 49 38 48 l26 -2 -27 -4z m152 -63 c14 0 20 9 23 33 4
32 4 32 3 -3 -1 -30 -4 -35 -26 -35 -22 0 -25 5 -26 35 -1 35 -1 35 3 3 3 -24
9 -33 23 -33z m313 -3 c18 -4 17 -5 -5 -6 -27 -1 -28 1 -26 42 l1 42 4 -37 c3
-28 9 -38 26 -41z m139 66 c-17 -3 -22 -9 -17 -21 5 -13 3 -14 -6 -5 -16 16
-3 33 24 32 21 -2 21 -2 -1 -6z m161 -1 c-6 -4 -13 -23 -16 -42 l-4 -35 -1 37
c-2 25 -7 38 -19 41 -10 3 -2 5 17 6 19 0 30 -3 23 -7z m153 -28 c8 -20 13
-39 10 -42 -3 -3 -6 0 -6 6 0 7 -11 12 -25 12 -14 0 -25 -5 -25 -12 0 -6 -2
-9 -5 -6 -13 13 7 35 27 30 15 -4 19 -1 16 9 -3 8 -11 13 -17 12 -12 -3 -15
10 -4 20 11 11 13 9 29 -29z m168 28 c2 -4 -8 -8 -22 -7 -22 0 -27 -5 -27 -25
0 -17 7 -26 25 -31 21 -6 22 -7 5 -8 -25 -1 -45 17 -45 39 0 31 49 55 64 32z
m144 -10 c20 17 23 18 10 2 -16 -19 -17 -22 -1 -45 16 -24 16 -24 -3 -6 -12 9
-23 17 -27 17 -3 0 -8 -8 -10 -17 -3 -10 -5 2 -4 27 0 25 2 34 4 22 l5 -24 26
24z m416 -4 c16 -26 -4 -52 -43 -56 -29 -3 -31 -1 -31 31 0 18 3 37 7 41 13
12 56 2 67 -16z m139 15 c-18 -3 -23 -11 -23 -33 0 -22 5 -30 23 -33 19 -4 18
-4 -5 -6 -26 -1 -28 2 -28 39 0 37 2 40 28 39 23 -2 24 -2 5 -6z m128 -23 c11
-30 29 -41 29 -17 0 7 7 22 15 33 12 15 11 11 -2 -23 -9 -24 -20 -43 -25 -43
-4 0 -8 2 -8 4 0 2 -7 20 -15 40 -8 20 -13 36 -10 36 3 0 11 -13 16 -30z m182
23 c-18 -3 -23 -11 -23 -33 0 -22 5 -30 23 -33 19 -4 18 -4 -5 -6 -26 -1 -28
2 -28 39 0 37 2 40 28 39 23 -2 24 -2 5 -6z m150 -66 c18 -4 17 -5 -5 -6 -27
-1 -28 1 -26 42 l1 42 4 -37 c3 -28 9 -38 26 -41z m187 53 c15 -28 -4 -60 -35
-60 -14 0 -29 8 -35 20 -15 28 4 60 35 60 14 0 29 -8 35 -20z m154 11 c3 -4
-6 -6 -19 -3 -20 3 -25 0 -25 -17 0 -23 19 -28 38 -9 9 9 12 9 12 1 0 -7 -10
-15 -22 -19 -13 -4 -26 -12 -30 -18 -4 -6 -8 8 -8 32 0 38 2 42 24 42 14 0 27
-4 30 -9z m145 2 c-21 -3 -26 -10 -27 -33 0 -24 4 -30 26 -33 24 -4 24 -4 -5
-6 -32 -1 -33 0 -33 39 0 39 1 40 33 39 27 -2 28 -3 6 -6z m178 -9 c3 -8 1
-20 -5 -26 -9 -9 -8 -15 1 -26 11 -13 9 -14 -11 -1 -20 12 -24 12 -32 -1 -7
-11 -10 -3 -10 28 0 38 2 42 25 42 14 0 28 -7 32 -16z m-2589 -57 c24 -4 24
-4 -5 -6 -32 -1 -33 0 -31 37 1 36 1 36 5 5 3 -26 9 -33 31 -36z m307 12 c0
-8 -11 -14 -28 -15 -25 -1 -25 -1 -2 3 26 4 33 17 15 26 -6 3 -5 4 2 3 7 -2
13 -9 13 -17z"/>
<path d="M3028 2810 l-36 -110 75 0 c56 0 74 3 71 13 -3 6 -20 56 -37 110 -18
53 -34 97 -35 97 -1 0 -18 -49 -38 -110z"/>
<path d="M1266 2559 c-32 -25 -34 -61 -5 -90 23 -23 79 -23 87 0 3 10 -2 12
-20 8 -37 -10 -63 13 -54 48 6 25 10 27 41 22 40 -7 55 7 26 22 -29 16 -45 14
-75 -10z"/>
<path d="M1440 2516 l0 -66 45 0 c25 0 45 5 45 10 0 6 -13 10 -29 10 -29 0
-30 2 -33 52 -2 30 -8 53 -15 56 -10 3 -13 -14 -13 -62z"/>
<path d="M1625 2555 c-30 -29 -32 -58 -5 -85 39 -39 120 -12 120 40 0 27 -43
70 -70 70 -11 0 -32 -11 -45 -25z m73 -17 c18 -18 14 -46 -7 -58 -25 -13 -48
-4 -56 21 -12 38 35 65 63 37z"/>
<path d="M1810 2576 c0 -21 56 -126 67 -126 13 0 63 96 63 120 0 26 -23 5 -42
-37 l-20 -46 -20 46 c-11 26 -27 47 -34 47 -8 0 -14 -2 -14 -4z"/>
<path d="M2020 2516 c0 -53 3 -66 15 -66 13 0 15 11 13 62 -2 38 -8 63 -15 66
-10 3 -13 -14 -13 -62z"/>
<path d="M2150 2562 c-28 -22 -18 -51 21 -59 40 -8 39 -35 -1 -31 -16 2 -29
-1 -30 -7 -1 -13 35 -18 67 -10 19 4 24 11 21 33 -2 20 -11 29 -35 36 -41 11
-43 26 -4 26 34 0 49 15 25 24 -25 10 -40 7 -64 -12z"/>
<path d="M2446 2524 c-14 -31 -26 -60 -26 -65 0 -15 27 -10 34 6 3 8 17 15 31
15 14 0 28 -7 31 -15 4 -8 13 -15 21 -15 8 0 13 6 10 13 -39 93 -52 117 -63
117 -7 0 -24 -25 -38 -56z m54 -16 c0 -5 -7 -8 -15 -8 -15 0 -20 21 -8 33 7 7
23 -11 23 -25z"/>
<path d="M2630 2515 c0 -51 3 -65 15 -65 11 0 15 11 15 37 l0 38 31 -38 c46
-56 61 -50 57 25 -2 38 -8 63 -15 66 -9 2 -13 -8 -13 -32 0 -20 -2 -36 -5 -36
-3 0 -19 16 -36 35 -17 19 -35 35 -40 35 -5 0 -9 -29 -9 -65z"/>
<path d="M2827 2573 c-13 -12 -7 -23 13 -23 17 0 20 -7 20 -50 0 -38 4 -50 15
-50 11 0 15 12 15 50 0 43 3 50 20 50 11 0 20 7 20 15 0 11 -12 15 -48 15 -27
0 -52 -3 -55 -7z"/>
<path d="M3010 2535 c0 -64 13 -85 53 -85 46 0 57 16 57 78 0 69 -23 67 -30
-4 -4 -41 -8 -49 -25 -49 -17 0 -21 8 -25 49 -7 66 -30 74 -30 11z"/>
<path d="M3217 2574 c-4 -4 -7 -34 -7 -66 0 -45 3 -58 15 -58 11 0 15 11 15
38 l1 37 30 -37 c46 -57 61 -51 57 24 -2 38 -8 63 -15 66 -9 2 -13 -8 -13 -34
l0 -38 -38 37 c-21 21 -41 34 -45 31z"/>
<path d="M3420 2515 l0 -65 50 0 c28 0 50 5 50 10 0 6 -16 10 -35 10 -24 0
-35 5 -35 15 0 10 10 15 30 15 17 0 30 5 30 10 0 6 -13 10 -30 10 -20 0 -30 5
-30 15 0 10 10 15 30 15 20 0 30 5 30 15 0 11 -12 15 -45 15 l-45 0 0 -65z"/>
<path d="M3618 2569 c-33 -19 -18 -62 25 -70 28 -6 20 -24 -11 -25 -44 -2 -48
-4 -32 -14 27 -18 78 -12 90 11 14 25 1 44 -35 53 -35 9 -31 26 5 26 32 0 40
14 14 24 -22 8 -36 7 -56 -5z"/>
<path d="M2860 2285 c0 -13 30 -15 210 -15 180 0 210 2 210 15 0 13 -30 15
-210 15 -180 0 -210 -2 -210 -15z"/>
<path d="M2690 1500 c0 -28 3 -31 28 -28 21 2 27 8 27 28 0 20 -6 26 -27 28
-25 3 -28 0 -28 -28z"/>
<path d="M3476 1515 c-9 -24 4 -45 29 -45 25 0 38 21 29 45 -4 8 -16 15 -29
15 -13 0 -25 -7 -29 -15z"/>
<path d="M3970 1509 c0 -14 5 -19 17 -17 26 5 29 38 4 38 -15 0 -21 -6 -21
-21z"/>
</g>
</svg>
